<svg xmlns="http://www.w3.org/2000/svg" version="1.1" xmlns:xlink="http://www.w3.org/1999/xlink" width="1500" height="1500" viewBox="0 0 1500 1500"><rect width="1500" height="1500" x="0" y="0" id="background" stroke="transparent" fill="#000000"></rect><svg xml:space="preserve" width="1000" height="1000" data-version="2" data-id="lg_GkCL6zJ7S5dhEmkLX3" viewBox="0 0 577 375" x="250" y="250"><rect width="100%" height="100%" fill="transparent"></rect><path d="M122.16 348.46q0 3.21-1.06 6.01-1.05 2.79-2.9 5.09-1.84 2.29-4.3 4.08-2.45 1.8-5.27 3.01-2.82 1.21-5.83 1.82-3 .61-5.9.61H52.23v-75.94h40.82q2.69 0 5.64.39 2.95.4 5.77 1.24 2.83.85 5.38 2.22 2.56 1.37 4.49 3.35 1.92 1.97 3.05 4.56 1.14 2.58 1.14 5.9 0 3.17-1.27 5.75-1.26 2.59-3.4 4.62-2.13 2.03-4.9 3.58-2.77 1.56-5.83 2.72 3.85 1.05 7.3 2.79 3.46 1.74 6.07 4.27 2.61 2.54 4.14 5.99 1.53 3.45 1.53 7.94m-24.89-35.81q0-6.43-3.41-9.39-3.4-2.95-9.67-2.95H73.17v24.63h9.22q2.85 0 5.54-.72 2.69-.71 4.77-2.21 2.09-1.5 3.33-3.82 1.24-2.32 1.24-5.54m3.69 34.49q0-3.11-.79-5.83t-2.43-4.69q-1.63-1.98-4.09-3.11-2.45-1.14-5.77-1.14H73.17v29.32h12.86q3.22 0 5.96-1.05 2.74-1.06 4.75-2.96 2-1.89 3.11-4.58 1.11-2.69 1.11-5.96"></path><rect width="69.93" height="75.94" x="-34.97" y="-37.97" fill="none" rx="0" ry="0" transform="translate(87.7 331.61)"></rect><path d="M213.91 331q0 9.18-3.16 16.53-3.16 7.36-8.75 12.47-5.59 5.12-13.24 7.86t-16.56 2.74q-8.91 0-16.56-2.74-7.64-2.74-13.23-7.86-5.59-5.11-8.76-12.47-3.16-7.35-3.16-16.53 0-9.33 3.14-16.69 3.13-7.36 8.7-12.44 5.56-5.09 13.21-7.81 7.64-2.72 16.66-2.72t16.67 2.72q7.64 2.72 13.21 7.81 5.56 5.08 8.7 12.44 3.13 7.36 3.13 16.69m-21.3 0q0-3.48-.32-7.12-.31-3.64-1.16-7.06-.84-3.43-2.29-6.44-1.45-3-3.72-5.25-2.27-2.24-5.46-3.53-3.19-1.29-7.46-1.29-4.32 0-7.54 1.29-3.22 1.29-5.48 3.51-2.27 2.21-3.7 5.22-1.42 3-2.24 6.41-.81 3.4-1.13 7.06-.32 3.67-.32 7.2 0 3.48.32 7.12t1.16 7.04q.84 3.4 2.29 6.41 1.45 3 3.72 5.24 2.27 2.25 5.46 3.56 3.19 1.32 7.46 1.32 4.17 0 7.28-1.34 3.11-1.35 5.38-3.64t3.77-5.33q1.5-3.03 2.37-6.43.87-3.4 1.24-6.99.37-3.58.37-6.96"></path><rect width="83.42" height="79.26" x="-41.71" y="-39.63" fill="none" rx="0" ry="0" transform="translate(172.7 331.47)"></rect><path d="M289.17 345.87q0 4.91-1.24 8.65t-3.48 6.49q-2.24 2.74-5.3 4.58-3.06 1.85-6.67 2.96-3.62 1.11-7.65 1.58t-8.2.47q-5.49 0-10.13-.81-4.64-.82-8.72-2.59-4.09-1.76-7.86-4.56-3.77-2.79-7.52-6.8l10.76-10.92q1.48 3.64 4.06 6.73 2.59 3.08 5.67 5.3 3.09 2.21 6.41 3.48 3.32 1.26 6.27 1.26 3.48 0 6.54-.5t5.33-1.66q2.27-1.16 3.56-3.08 1.29-1.93 1.29-4.83 0-2.21-1-3.8-1-1.58-2.61-2.71-1.61-1.14-3.67-1.93-2.05-.79-4.19-1.34-2.13-.56-4.19-1-2.06-.45-3.64-.93-3.11-.89-6.49-1.92-3.37-1.03-6.64-2.35-3.27-1.32-6.2-3.03-2.92-1.71-5.14-4.06-2.21-2.35-3.53-5.43-1.32-3.09-1.32-7.1 0-4.79 1.19-8.51 1.18-3.72 3.35-6.46 2.16-2.74 5.11-4.62 2.95-1.87 6.49-3 3.53-1.14 7.51-1.64t8.15-.5q5.69 0 10.36 1.06 4.67 1.05 8.62 3 3.96 1.95 7.25 4.67 3.3 2.72 6.2 6.04l-10.76 10.91q-1.26-3.79-3.5-6.85-2.25-3.06-4.99-5.25t-5.75-3.37q-3-1.19-5.8-1.19-3.63 0-6.69.5-3.06.5-5.25 1.64-2.19 1.13-3.4 3.05-1.21 1.93-1.21 4.78 0 2.26.89 3.85.9 1.58 2.4 2.69 1.5 1.1 3.4 1.81 1.9.72 3.93 1.24 2.03.53 4.01.93 1.98.39 3.61.87 3.17.89 6.65 1.9 3.48 1 6.85 2.34 3.38 1.35 6.43 3.09 3.06 1.74 5.38 4.14 2.32 2.4 3.7 5.53 1.37 3.14 1.37 7.2"></path><rect width="66.77" height="79.31" x="-33.38" y="-39.66" fill="none" rx="0" ry="0" transform="translate(256.29 331.44)"></rect><path d="M375.81 331q0 5.54-1.48 10.52-1.47 4.98-4.14 9.2-2.66 4.22-6.35 7.62-3.69 3.41-8.15 5.78-4.46 2.37-9.54 3.66-5.09 1.3-10.47 1.3h-33.49v-75.94h33.49q5.38 0 10.44 1.26 5.06 1.27 9.52 3.62 4.45 2.34 8.17 5.72 3.72 3.37 6.38 7.56 2.67 4.2 4.14 9.18 1.48 4.98 1.48 10.52m-21.25 0q0-6.17-1.51-11.73-1.5-5.57-4.66-9.78-3.17-4.22-8.05-6.7-4.87-2.48-11.68-2.48h-5.53v61.38h5.53q6.7 0 11.58-2.5 4.88-2.51 8.07-6.75 3.19-4.25 4.72-9.78 1.53-5.54 1.53-11.66"></path><rect width="73.62" height="75.94" x="-36.81" y="-37.97" fill="none" rx="0" ry="0" transform="translate(339.5 331.61)"></rect><path d="M409.61 369.08h-20.93v-75.94h20.93Z"></path><rect width="20.93" height="75.94" x="-10.46" y="-37.97" fill="none" rx="0" ry="0" transform="translate(399.64 331.61)"></rect><path d="M500.42 331q0 5.54-1.48 10.52-1.47 4.98-4.14 9.2-2.66 4.22-6.35 7.62-3.69 3.41-8.15 5.78-4.45 2.37-9.54 3.66-5.09 1.3-10.47 1.3H426.8v-75.94h33.49q5.38 0 10.44 1.26 5.06 1.27 9.52 3.62 4.46 2.34 8.17 5.72 3.72 3.37 6.38 7.56 2.67 4.2 4.14 9.18 1.48 4.98 1.48 10.52m-21.25 0q0-6.17-1.5-11.73-1.51-5.57-4.67-9.78-3.17-4.22-8.04-6.7-4.88-2.48-11.68-2.48h-5.54v61.38h5.54q6.69 0 11.57-2.5 4.88-2.51 8.07-6.75 3.19-4.25 4.72-9.78 1.53-5.54 1.53-11.66"></path><rect width="73.62" height="75.94" x="-36.81" y="-37.97" fill="none" rx="0" ry="0" transform="translate(464.11 331.61)"></rect><path d="M411.748 30.217a26.843 26.843 0 0 0-26.815-26.815H211.342a26.843 26.843 0 0 0-26.787 26.815v18.018a4.243 4.243 0 0 0 4.243 4.243h24.24a4.243 4.243 0 0 0 4.244-4.243V36.13h161.71v96.936h-10.55a4.243 4.243 0 0 0-4.243 4.243v24.241a4.243 4.243 0 0 0 4.243 4.243h16.49a26.843 26.843 0 0 0 26.816-26.815Zm-8.486 108.788a18.33 18.33 0 0 1-18.33 18.33h-12.247V141.55h10.55a4.243 4.243 0 0 0 4.244-4.243V31.886a4.243 4.243 0 0 0-4.243-4.243H213.039a4.243 4.243 0 0 0-4.243 4.243v12.078H193.04V30.217a18.33 18.33 0 0 1 18.329-18.33h173.563a18.358 18.358 0 0 1 18.33 18.33Zm-266.85-55.44V192.38a23.11 23.11 0 0 0 23.11 23.081h173.563a23.11 23.11 0 0 0 23.024-23.081V83.565a23.11 23.11 0 0 0-23.081-23.082H159.522a23.11 23.11 0 0 0-23.11 23.082m8.486 0a14.624 14.624 0 0 1 14.624-14.596h173.563a14.624 14.624 0 0 1 14.539 14.596V192.38a14.624 14.624 0 0 1-14.596 14.595H159.522a14.624 14.624 0 0 1-14.596-14.595Zm181.737 86.696a4.243 4.243 0 0 1-4.243 4.243h-30.18a4.243 4.243 0 0 1 0-8.486h30.18a4.243 4.243 0 0 1 4.243 4.243m-68.848-21.525a4.243 4.243 0 0 1 4.243-4.243h60.362a4.243 4.243 0 1 1 0 8.485H262.03a4.243 4.243 0 0 1-4.243-4.242m0-21.526a4.243 4.243 0 0 1 4.243-4.243h60.362a4.243 4.243 0 0 1 0 8.486H262.03a4.243 4.243 0 0 1-4.243-4.243m0-21.526a4.243 4.243 0 0 1 4.243-4.243h60.362a4.243 4.243 0 0 1 0 8.486H262.03a4.243 4.243 0 0 1-4.243-4.243m-80.106 83.19h60.843a9.193 9.193 0 0 0 9.165-9.165v-11.994a39.176 39.176 0 0 0-18.527-33.377 28.286 28.286 0 1 0-42.146 0 39.176 39.176 0 0 0-18.528 33.377v11.994a9.193 9.193 0 0 0 9.193 9.164m-.679-21.158a30.747 30.747 0 0 1 19.122-28.512 4.243 4.243 0 0 0 .792-7.41 19.8 19.8 0 1 1 22.43 0 4.243 4.243 0 0 0 .793 7.41 30.747 30.747 0 0 1 19.093 28.512v11.994a.679.679 0 0 1-.68.679h-60.87a.679.679 0 0 1-.68-.68ZM33.93 206.05H5.66v-39.37h28.27v5.03H16.51v12.17h13.46v5H16.51v12.14h17.42Z"></path><rect width="28.27" height="39.37" x="-14.13" y="-19.68" fill="none" rx="0" ry="0" transform="translate(20.3 186.87)"></rect><path d="M72.92 194.02q0 2.54-.64 4.48-.64 1.95-1.81 3.37-1.16 1.42-2.74 2.38-1.59.95-3.46 1.53-1.88.57-3.97.82-2.09.24-4.25.24-2.84 0-5.25-.42t-4.52-1.34q-2.12-.92-4.08-2.36-1.95-1.45-3.9-3.53l5.58-5.66q.77 1.88 2.11 3.48 1.34 1.6 2.94 2.75 1.6 1.15 3.32 1.81 1.72.65 3.25.65 1.81 0 3.39-.26 1.59-.26 2.77-.86 1.17-.6 1.84-1.6.67-1 .67-2.5 0-1.15-.52-1.97-.52-.82-1.35-1.41-.83-.58-1.9-.99-1.07-.41-2.18-.7-1.1-.29-2.17-.52-1.07-.23-1.89-.48-1.61-.46-3.36-1-1.75-.53-3.44-1.21-1.7-.69-3.22-1.58-1.51-.89-2.66-2.1-1.15-1.22-1.84-2.82-.68-1.6-.68-3.68 0-2.48.62-4.41.61-1.93 1.73-3.35 1.12-1.42 2.66-2.39 1.53-.98 3.36-1.56 1.83-.59 3.89-.85 2.07-.26 4.23-.26 2.95 0 5.37.55 2.42.54 4.47 1.56 2.05 1.01 3.76 2.41 1.71 1.41 3.22 3.14l-5.58 5.66q-.66-1.97-1.82-3.56-1.16-1.58-2.58-2.72-1.43-1.13-2.99-1.75-1.55-.61-3-.61-1.89 0-3.48.26-1.58.25-2.72.84-1.13.59-1.76 1.59-.63 1-.63 2.47 0 1.18.47 2 .46.82 1.24 1.39.78.58 1.76.95.99.37 2.04.64t2.08.48q1.02.2 1.87.45 1.64.46 3.45.98 1.8.52 3.55 1.22 1.75.7 3.34 1.6 1.58.9 2.79 2.15 1.2 1.24 1.91 2.87.71 1.62.71 3.73"></path><rect width="34.62" height="41.12" x="-17.31" y="-20.56" fill="none" rx="0" ry="0" transform="translate(56.11 186.78)"></rect><path d="M97.56 206.05H86.7v-34.34H75.98v-5.03h32.3v5.03H97.56Z"></path><rect width="32.3" height="39.37" x="-16.15" y="-19.68" fill="none" rx="0" ry="0" transform="translate(92.63 186.87)"></rect><path d="M119.08 201.95q0 1.04-.38 1.96-.39.91-1.07 1.58t-1.59 1.07q-.9.39-1.94.39t-1.94-.39q-.9-.4-1.59-1.07-.68-.67-1.06-1.58-.38-.92-.38-1.96 0-1.01.38-1.93.38-.91 1.06-1.58.69-.67 1.59-1.07.9-.4 1.94-.4t1.94.4q.91.4 1.59 1.07t1.07 1.58q.38.92.38 1.93"></path><rect width="9.95" height="9.98" x="-4.97" y="-4.99" fill="none" rx="0" ry="0" transform="translate(114.6 202.46)"></rect><path d="M462 180.06q0 2.05-.56 3.53-.55 1.48-1.49 2.53-.94 1.06-2.21 1.78-1.28.72-2.72 1.27-1.45.55-3 .99-1.54.44-3.06.92-1.51.48-2.91 1.1-1.4.62-2.53 1.53-1.12.9-1.93 2.18-.8 1.27-1.1 3.06H462v4.22h-31.31q.51-3.16 1.45-5.47.94-2.31 2.18-3.96 1.24-1.65 2.7-2.76 1.45-1.12 2.99-1.89 1.54-.76 3.1-1.28l3-1q1.45-.48 2.7-1.02 1.25-.54 2.18-1.34.93-.81 1.46-1.97.53-1.15.53-2.88 0-1.56-.53-2.73t-1.45-1.95q-.92-.78-2.17-1.17-1.25-.39-2.67-.39-1.49 0-2.76.55-1.28.55-2.3 1.55-1.02 1-1.77 2.4-.74 1.4-1.13 3.12l-7.05-3.9q.94-1.93 2.68-3.35 1.73-1.42 3.84-2.38 2.11-.95 4.39-1.42 2.29-.47 4.33-.47 1.97 0 3.9.16t3.66.6q1.73.43 3.2 1.19 1.47.76 2.55 1.94 1.08 1.18 1.69 2.83.61 1.66.61 3.88"></path><rect width="31.31" height="33.71" x="-15.65" y="-16.86" fill="none" rx="0" ry="0" transform="translate(446.85 186.81)"></rect><path d="M499.49 186.6q0 3.03-.68 5.48-.69 2.44-1.9 4.36-1.2 1.91-2.81 3.31-1.6 1.4-3.44 2.31-1.84.91-3.81 1.34-1.97.44-3.9.44-1.95 0-3.93-.47-1.97-.47-3.78-1.42-1.82-.96-3.39-2.38t-2.73-3.34q-1.16-1.92-1.82-4.32-.67-2.41-.67-5.31 0-3.05.68-5.5.68-2.46 1.85-4.39 1.17-1.92 2.75-3.31 1.58-1.39 3.4-2.29 1.81-.89 3.76-1.33 1.95-.43 3.88-.43 2.06 0 4.11.43 2.04.44 3.87 1.33 1.84.9 3.41 2.29 1.57 1.39 2.71 3.31 1.14 1.93 1.79 4.39.65 2.45.65 5.5m-9.04 0q0-1.51-.15-3.09-.15-1.59-.48-3.08-.33-1.49-.89-2.8-.57-1.31-1.4-2.28-.84-.98-1.98-1.54-1.13-.56-2.6-.56-1.36 0-2.42.56-1.07.56-1.88 1.53-.82.96-1.38 2.27-.56 1.31-.92 2.79t-.52 3.07q-.16 1.6-.16 3.13 0 1.52.16 3.1.16 1.59.52 3.07.36 1.48.92 2.78.56 1.31 1.38 2.29.81.97 1.88 1.55 1.06.57 2.42.57 1.28 0 2.35-.58 1.07-.59 1.91-1.59.83-1 1.44-2.32.61-1.32 1.01-2.8.4-1.48.6-3.04.19-1.56.19-3.03"></path><rect width="32.86" height="34.49" x="-16.43" y="-17.25" fill="none" rx="0" ry="0" transform="translate(483.56 187.1)"></rect><path d="M534.45 180.06q0 2.05-.55 3.53-.56 1.48-1.5 2.53-.94 1.06-2.21 1.78t-2.72 1.27q-1.45.55-3 .99-1.54.44-3.06.92-1.51.48-2.91 1.1-1.4.62-2.53 1.53-1.12.9-1.93 2.18-.8 1.27-1.1 3.06h21.51v4.22h-31.31q.51-3.16 1.45-5.47.94-2.31 2.18-3.96 1.24-1.65 2.7-2.76 1.45-1.12 2.99-1.89 1.54-.76 3.1-1.28t3.01-1q1.44-.48 2.69-1.02t2.18-1.34q.93-.81 1.46-1.97.53-1.15.53-2.88 0-1.56-.53-2.73t-1.45-1.95q-.91-.78-2.17-1.17-1.25-.39-2.67-.39-1.49 0-2.76.55-1.28.55-2.3 1.55-1.02 1-1.77 2.4-.74 1.4-1.13 3.12l-7.05-3.9q.94-1.93 2.68-3.35 1.73-1.42 3.84-2.38 2.11-.95 4.39-1.42 2.29-.47 4.33-.47 1.97 0 3.9.16t3.66.6q1.74.43 3.2 1.19 1.47.76 2.55 1.94 1.08 1.18 1.69 2.83.61 1.66.61 3.88"></path><rect width="31.31" height="33.71" x="-15.65" y="-16.86" fill="none" rx="0" ry="0" transform="translate(519.3 186.81)"></rect><path d="M570.34 193.03q0 2.23-.75 3.9-.74 1.68-1.99 2.87-1.25 1.19-2.92 1.97-1.66.78-3.5 1.24-1.83.46-3.74.65-1.9.18-3.62.18-2.05 0-4.43-.47-2.39-.47-4.64-1.42-2.25-.96-4.08-2.38-1.84-1.42-2.78-3.35l8.19-3.88q0 1.58.66 2.97.65 1.39 1.73 2.42 1.08 1.04 2.47 1.63 1.38.6 2.88.6 1.42 0 2.77-.49 1.36-.5 2.4-1.41 1.04-.92 1.69-2.2.64-1.27.64-2.83 0-1.72-.59-3.03-.58-1.31-1.6-2.17-1.02-.86-2.39-1.29-1.36-.44-2.92-.44-3.63 0-6.27.29-2.64.28-4.36.63-2.02.41-3.37.91l3.44-17.8h24.35v4.22h-16.85l-1.63 8.05q1.01-.09 2.17-.14 1.16-.06 2.52-.06 3.05 0 5.47.48t4.26 1.3q1.83.81 3.12 1.89 1.28 1.08 2.1 2.28.81 1.21 1.19 2.46.38 1.25.38 2.42"></path><rect width="32.45" height="33.71" x="-16.23" y="-16.86" fill="none" rx="0" ry="0" transform="translate(554.62 187.49)"></rect></svg></svg>